#!OML:ASF C:\ViconDB\ViconDB\414\Spring2016\041811\Spring2016.ASF
:FULLY-SPECIFIED
:DEGREES
338
root 5.30756 16.0892 -40.6503 -164.624 -8.74907 177.144
lowerback 23.2515 0.904696 -3.90242
upperback 2.86317 -0.36873 -0.163714
thorax -9.8245 -0.256032 2.21078
lowerneck -17.9907 -6.95401 -15.728
upperneck 3.11 -8.11628 19.6959
head 5.44134 -3.31718 8.10849
rclavicle 2.99171e-014 1.68967e-015
rhumerus -31.4996 4.47179 -74.581
rradius 95.2887
rwrist -4.90077
rhand -39.048 -18.8845
rfingers 7.12502
rthumb -12.05 -48.5176
lclavicle 2.99171e-014 1.68967e-015
lhumerus -25.7135 -7.98251 61.0473
lradius 90.135
lwrist 7.65022
lhand -31.2556 13.173
lfingers 7.12502
lthumb -4.52991 43.1046
rfemur -38.1407 -19.7302 18.9958
rtibia 71.0545
rfoot 3.44865 -16.4203
rtoes 1.46718
lfemur -40.173 6.6321 -11.6173
ltibia 65.9509
lfoot -34.2132 -4.91108
ltoes -21.9421
339
root 5.29089 16.3009 -40.9899 -164.961 -8.59778 177.093
lowerback 21.9211 0.783674 -3.984
upperback 2.44679 -0.419777 -0.303186
thorax -9.56961 -0.243539 2.10266
lowerneck -17.9136 -6.84233 -15.5525
upperneck 4.45241 -8.09533 19.4289
head 5.81105 -3.26616 8.00644
rclavicle -3.58682e-014 4.67144e-015
rhumerus -30.6142 5.21556 -72.8983
rradius 98.1076
rwrist -5.50899
rhand -38.823 -18.588
rfingers 7.12502
rthumb -11.833 -48.2336
lclavicle -3.58682e-014 4.67144e-015
lhumerus -25.068 -7.60349 58.3055
lradius 92.661
lwrist 8.40285
lhand -31.2175 13.1062
lfingers 7.12502
lthumb -4.49316 43.0385
rfemur -34.8179 -19.6122 18.4817
rtibia 68.2525
rfoot 2.0799 -15.8251
rtoes 1.72632
lfemur -36.645 5.82603 -11.5261
ltibia 62.7548
lfoot -33.2502 -3.95388
ltoes -22.8021
340
root 5.2685 16.5175 -41.3461 -165.363 -8.25383 176.974
lowerback 20.3635 0.755694 -4.30724
upperback 2.06458 -0.38515 -0.343799
thorax -9.14652 -0.186161 2.21542
lowerneck -17.8288 -6.66052 -15.4579
upperneck 5.9928 -7.94889 18.9635
head 6.21153 -3.16359 7.87323
rclavicle 6.38596e-015 -1.05356e-014
rhumerus -29.5039 6.02054 -70.9247
rradius 100.469
rwrist -5.74759
rhand -38.6334 -18.5778
rfingers 7.12502
rthumb -11.6502 -48.2339
lclavicle 6.38596e-015 -1.05356e-014
lhumerus -24.2649 -7.0031 55.8392
lradius 94.7411
lwrist 8.86189
lhand -31.1852 13.1074
lfingers 7.12502
lthumb -4.46199 43.0404
rfemur -31.4854 -19.2839 17.7432
rtibia 65.521
rfoot 0.524265 -14.9553
rtoes 2.12361
lfemur -32.9689 5.10561 -11.6032
ltibia 59.4845
lfoot -31.8186 -2.92759
ltoes -24.0188
341
root 5.24727 16.7537 -41.7244 -165.821 -7.98694 176.975
lowerback 18.4543 0.753317 -4.6554
upperback 1.77479 -0.27673 -0.186255
thorax -8.42205 -0.0999716 2.53746
lowerneck -17.5222 -6.24226 -15.1893
upperneck 7.4826 -7.42066 17.8484
head 6.45239 -2.92385 7.53637
rclavicle 1.91082e-014 6.41081e-015
rhumerus -28.1564 6.79201 -68.6946
rradius 102.475
rwrist -6.34388
rhand -38.6147 -18.4362
rfingers 7.12502
rthumb -11.6321 -48.0934
lclavicle 1.91082e-014 6.41081e-015
lhumerus -23.2518 -5.8821 53.6671
lradius 96.4117
lwrist 8.23585
lhand -31.4141 13.6849
lfingers 7.12502
lthumb -4.683 43.6131
rfemur -28.1333 -19.0372 17.1571
rtibia 62.8114
rfoot -1.35826 -13.7874
rtoes 2.45975
lfemur -29.1981 4.28199 -11.5207
ltibia 56.146
lfoot -29.8628 -2.21126
ltoes -25.2944
342
root 5.22633 17.0045 -42.1194 -166.29 -7.66365 177.125
lowerback 16.7651 0.626921 -4.53725
upperback 1.21003 -0.270642 -0.314178
thorax -8.10307 -0.0673623 2.31531
lowerneck -17.2149 -5.96446 -14.7349
upperneck 9.42549 -7.30472 17.2655
head 6.94113 -2.86474 7.31034
rclavicle 1.55301e-016 -1.79155e-014
rhumerus -27.1667 7.59936 -67.042
rradius 104.25
rwrist -6.87402
rhand -38.4032 -18.6831
rfingers 7.12502
rthumb -11.4281 -48.3517
lclavicle 1.55301e-016 -1.79155e-014
lhumerus -22.3525 -5.49435 51.1166
lradius 97.7097
lwrist 9.0178
lhand -30.7806 14.176
lfingers 7.12502
lthumb -4.07123 44.1168
rfemur -24.9167 -18.4689 16.7459
rtibia 60.2104
rfoot -3.50058 -12.1323
rtoes 2.41416
lfemur -25.4613 3.41534 -11.2656
ltibia 52.876
lfoot -27.4168 -1.75124
ltoes -26.2537
343
root 5.20445 17.2634 -42.5205 -166.73 -7.64563 177.4
lowerback 14.8552 0.313228 -4.48501
upperback 0.660579 -0.510561 -0.272209
thorax -7.61253 -0.156161 2.36621
lowerneck -16.8586 -6.10845 -14.7573
upperneck 11.4505 -7.86878 17.4525
head 7.63148 -3.12339 7.35546
rclavicle 9.44227e-015 2.05494e-014
rhumerus -25.9048 8.70307 -65.4946
rradius 105.716
rwrist -7.55473
rhand -38.3634 -19.0372
rfingers 7.12502
rthumb -11.3898 -48.7078
lclavicle 9.44227e-015 2.05494e-014
lhumerus -21.7752 -5.29127 48.7585
lradius 99.2227
lwrist 11.888
lhand -31.6171 14.9685
lfingers 7.12502
lthumb -4.87897 44.8923
rfemur -21.9721 -18.3128 16.5191
rtibia 57.8502
rfoot -6.07893 -10.3791
rtoes 2.28819
lfemur -22.0642 2.38907 -10.9086
ltibia 49.7128
lfoot -24.2326 -0.927421
ltoes -27.8245
344
root 5.19109 17.5379 -42.9257 -167.606 -7.799 177.85
lowerback 13.3806 0.106045 -4.18701
upperback 0.34291 -0.611563 -0.0942601
thorax -7.11776 -0.200382 2.39105
lowerneck -16.4636 -6.09841 -15.139
upperneck 13.1197 -8.11932 17.6316
head 8.16881 -3.26319 7.50339
rclavicle 7.04443e-015 6.4605e-016
rhumerus -24.5032 9.26849 -63.6163
rradius 107.026
rwrist -8.06912
rhand -37.8546 -19.3401
rfingers 7.12502
rthumb -10.899 -49.0372
lclavicle 7.04443e-015 6.4605e-016
lhumerus -20.6384 -4.8698 46.7101
lradius 100.24
lwrist 10.5158
lhand -32.9264 19.3373
lfingers 7.12502
lthumb -6.14312 49.2283
rfemur -18.771 -18.2324 16.4158
rtibia 55.6628
rfoot -9.23667 -8.10442
rtoes 0.537137
lfemur -18.3859 1.37974 -10.2717
ltibia 46.6496
lfoot -20.2786 -0.274722
ltoes -28.6703
345
root 5.1759 17.8264 -43.3394 -168.317 -7.66563 177.756
lowerback 11.7881 0.0259756 -4.51998
upperback 0.0690013 -0.658821 -0.0599156
thorax -6.5061 -0.209286 2.60506
lowerneck -16.5747 -5.934 -14.6795
upperneck 15.144 -8.11706 16.7251
head 8.78506 -3.30234 7.15301
rclavicle 7.10655e-015 -1.86361e-015
rhumerus -23.0054 9.60456 -61.6904
rradius 108.173
rwrist -8.80605
rhand -37.4123 -19.6291
rfingers 7.12502
rthumb -10.4723 -49.3483
lclavicle 7.10655e-015 -1.86361e-015
lhumerus -20.6384 -4.8698 46.7101
lradius 100.24
lwrist 10.5158
lhand -32.9264 19.3373
lfingers 7.12502
lthumb -6.14312 49.2283
rfemur -16.1131 -18.231 15.6477
rtibia 53.8334
rfoot -13.0148 -5.28172
rtoes -1.84979
lfemur -14.9409 0.504007 -10.3616
ltibia 43.6435
lfoot -15.5494 0.533324
ltoes -28.3171
346
root 5.15856 18.134 -43.756 -168.975 -7.47052 177.943
lowerback 10.1148 -0.0158318 -4.5659
upperback -0.0747532 -0.603729 0.0780615
thorax -5.71653 -0.186087 2.74706
lowerneck -15.4437 -6.05066 -15.4778
upperneck 15.5314 -8.48465 17.2931
head 8.83522 -3.54784 7.47142
rclavicle -9.98582e-015 -2.32454e-014
rhumerus -21.3519 9.78395 -59.6865
rradius 109.275
rwrist -9.60029
rhand -36.9865 -19.8463
rfingers 7.12502
rthumb -10.0616 -49.5857
lclavicle -9.98582e-015 -2.32454e-014
lhumerus -20.6384 -4.8698 46.7101
lradius 100.24
lwrist 10.5158
lhand -32.9264 19.3373
lfingers 7.12502
lthumb -6.14312 49.2283
rfemur -13.9762 -18.1179 15.2415
rtibia 52.2159
rfoot -17.1299 -1.68935
rtoes -4.38201
lfemur -11.8608 -0.0217362 -10.2079
ltibia 40.675
lfoot -10.0815 1.72191
ltoes -27.1147
347
root 5.14988 18.4385 -44.1582 -169.832 -7.22683 177.827
lowerback 8.9772 0.0144292 -5.01832
upperback -0.168299 -0.538125 0.15786
thorax -5.17485 -0.147829 3.06381
lowerneck -14.9405 -6.09754 -15.8226
upperneck 16.1984 -8.70044 17.338
head 9.02112 -3.7061 7.54499
rclavicle -7.3923e-016 2.63887e-014
rhumerus -19.8335 9.7527 -57.578
rradius 110.376
rwrist -10.7595
rhand -36.4474 -19.7521
rfingers 7.12502
rthumb -9.54146 -49.516
lclavicle -7.3923e-016 2.63887e-014
lhumerus -20.6384 -4.8698 46.7101
lradius 100.24
lwrist 10.5158
lhand -32.9264 19.3373
lfingers 7.12502
lthumb -6.14312 49.2283
rfemur -12.0265 -18.2034 14.4722
rtibia 50.8977
rfoot -21.4516 2.42556
rtoes -6.84644
lfemur -8.87733 -0.38404 -10.4302
ltibia 37.8059
lfoot -4.10961 3.3325
ltoes -26.0924
348
root 5.14653 18.7444 -44.543 -170.674 -7.22806 177.961
lowerback 8.89535 0.0353445 -4.85922
upperback -1.30936 -0.519536 -0.145039
thorax -6.33877 -0.0895766 2.65804
lowerneck -12.2532 -5.56799 -15.14
upperneck 16.6083 -8.70296 17.233
head 8.60834 -3.86179 7.42069
rclavicle -3.27995e-015 1.30204e-014
rhumerus -20.6013 10.1005 -56.4061
rradius 111.882
rwrist -12.3526
rhand -35.8304 -18.7887
rfingers 7.12502
rthumb -8.94611 -48.579
lclavicle -3.27995e-015 1.30204e-014
lhumerus -20.6384 -4.8698 46.7101
lradius 100.24
lwrist 10.5158
lhand -32.9264 19.3373
lfingers 7.12502
lthumb -6.14312 49.2283
rfemur -10.376 -18.5975 14.028
rtibia 49.7664
rfoot -25.5177 6.48248
rtoes -9.72726
lfemur -6.3194 -0.776535 -10.2659
ltibia 35.0014
lfoot 2.15291 5.31163
ltoes -23.6485
